<svg width="42" height="41" viewBox="0 0 42 41" fill="none" xmlns="http://www.w3.org/2000/svg">
<g filter="url(#filter0_dd_167139_74)">
<path d="M16.9865 32H24.9434C26.829 32 27.7718 32 28.3576 31.4142C28.9434 30.8284 28.9434 29.8856 28.9434 28V19.7857C31.0102 19.7857 32.0436 19.7857 32.3114 19.2037C32.3291 19.1651 32.3444 19.1254 32.3571 19.0849C32.5488 18.4736 31.7823 17.7805 30.2492 16.3944L23.6548 10.4321C22.3766 9.27639 21.7375 8.69853 20.9659 8.69957C20.1942 8.7006 19.5567 9.28017 18.2816 10.4393L11.6898 16.4315C10.1984 17.7873 9.45267 18.4652 9.62622 19.064C9.64234 19.1197 9.66327 19.1738 9.68876 19.2258C9.96319 19.7857 10.971 19.7857 12.9865 19.7857V28C12.9865 29.8856 12.9865 30.8284 13.5723 31.4142C14.1581 32 15.1009 32 16.9865 32Z" fill="url(#paint0_linear_167139_74)"/>
<path d="M24.9434 32.5H16.9865H16.9499C16.0382 32.5 15.3033 32.5 14.7253 32.4223C14.1253 32.3416 13.62 32.169 13.2187 31.7678C12.8175 31.3665 12.6449 30.8612 12.5642 30.2612C12.4865 29.6832 12.4865 28.9483 12.4865 28.0366V28V20.2854C11.7238 20.2838 11.0979 20.2737 10.6202 20.2116C10.0687 20.1398 9.49954 19.9758 9.2398 19.4459C9.20155 19.3679 9.17016 19.2867 9.14598 19.2032C8.98172 18.6364 9.29253 18.1322 9.65242 17.7081C10.0247 17.2695 10.6032 16.7435 11.3238 16.0886L11.3535 16.0615L17.9452 10.0693L17.9708 10.0461C18.5866 9.48626 19.0846 9.03359 19.5263 8.72519C19.9858 8.40436 20.4378 8.20028 20.9652 8.19957C21.4926 8.19886 21.9452 8.40173 22.4055 8.72132C22.8481 9.02854 23.3472 9.47989 23.9646 10.0381L23.9902 10.0612L30.5845 16.0235L30.615 16.0511C31.3558 16.7208 31.9503 17.2583 32.331 17.7065C32.6991 18.1398 33.0154 18.6565 32.8342 19.2345C32.8342 19.2345 32.8342 19.2345 32.8342 19.2345L32.3571 19.0849C32.3444 19.1254 32.3291 19.1651 32.3114 19.2037C32.0436 19.7857 31.0102 19.7857 28.9434 19.7857L24.9434 32.5ZM24.9434 32.5H24.98C25.8917 32.5 26.6266 32.5 27.2045 32.4223C27.8046 32.3416 28.3099 32.169 28.7111 31.7678C29.1124 31.3665 29.285 30.8612 29.3657 30.2612C29.4434 29.6832 29.4434 28.9483 29.4434 28.0366V28V20.2854L24.9434 32.5Z" stroke="url(#paint1_linear_167139_74)"/>
</g>
<defs>
<filter id="filter0_dd_167139_74" x="0.600342" y="0.699585" width="40.7871" height="40.3004" filterUnits="userSpaceOnUse" color-interpolation-filters="sRGB">
<feFlood flood-opacity="0" result="BackgroundImageFix"/>
<feColorMatrix in="SourceAlpha" type="matrix" values="0 0 0 0 0 0 0 0 0 0 0 0 0 0 0 0 0 0 127 0" result="hardAlpha"/>
<feOffset dx="1" dy="1"/>
<feGaussianBlur stdDeviation="3.5"/>
<feColorMatrix type="matrix" values="0 0 0 0 0.0705882 0 0 0 0 0.239843 0 0 0 0 0.396078 0 0 0 0.26 0"/>
<feBlend mode="normal" in2="BackgroundImageFix" result="effect1_dropShadow_167139_74"/>
<feColorMatrix in="SourceAlpha" type="matrix" values="0 0 0 0 0 0 0 0 0 0 0 0 0 0 0 0 0 0 127 0" result="hardAlpha"/>
<feOffset dx="-2" dy="-1"/>
<feGaussianBlur stdDeviation="3"/>
<feColorMatrix type="matrix" values="0 0 0 0 1 0 0 0 0 1 0 0 0 0 1 0 0 0 0.1 0"/>
<feBlend mode="normal" in2="effect1_dropShadow_167139_74" result="effect2_dropShadow_167139_74"/>
<feBlend mode="normal" in="SourceGraphic" in2="effect2_dropShadow_167139_74" result="shape"/>
</filter>
<linearGradient id="paint0_linear_167139_74" x1="45.8975" y1="36.5" x2="13.442" y2="10.4477" gradientUnits="userSpaceOnUse">
<stop offset="0.245118" stop-color="#DEE9F3"/>
<stop offset="1" stop-color="#5F83AD"/>
</linearGradient>
<linearGradient id="paint1_linear_167139_74" x1="9.99461" y1="13.5" x2="33.4283" y2="30.2036" gradientUnits="userSpaceOnUse">
<stop offset="0.130987" stop-color="white"/>
<stop offset="1" stop-color="#5B80A3"/>
</linearGradient>
</defs>
</svg>
