<svg width="26" height="26" viewBox="0 0 26 26" fill="none"
  xmlns="http://www.w3.org/2000/svg">
  <path d="M8.88561 24.8004H16.8425C18.7281 24.8004 19.6709 24.8004 20.2567 24.2146C20.8425 23.6288 20.8425 22.686 20.8425 20.8004V12.5861C22.9093 12.5861 23.9427 12.5861 24.2105 12.0041C24.2282 11.9655 24.2435 11.9258 24.2562 11.8853C24.4479 11.274 23.6814 10.5809 22.1483 9.19483L15.5539 3.23253C14.2757 2.07682 13.6366 1.49896 12.865 1.5C12.0933 1.50103 11.4558 2.0806 10.1807 3.23973L3.58891 9.23193C2.09751 10.5877 1.35178 11.2656 1.52533 11.8644C1.54145 11.9201 1.56238 11.9742 1.58787 12.0262C1.8623 12.5861 2.87011 12.5861 4.88561 12.5861V20.8004C4.88561 22.686 4.88561 23.6288 5.47141 24.2146C6.05721 24.8004 7.00001 24.8004 8.88561 24.8004Z" fill="url(#paint0_linear_1_16)"/>
  <path d="M16.8425 25.3004H8.88562H8.84902C7.93732 25.3004 7.20242 25.3004 6.62442 25.2227C6.02442 25.142 5.51912 24.9694 5.11782 24.5682C4.71662 24.1669 4.54402 23.6616 4.46332 23.0616C4.38562 22.4836 4.38562 21.7487 4.38562 20.837V20.8004V13.0858C3.62292 13.0842 2.99702 13.0741 2.51932 13.012C1.96782 12.9402 1.39866 12.7762 1.13892 12.2463C1.10067 12.1683 1.06928 12.0871 1.0451 12.0036C0.880841 11.4368 1.19165 10.9326 1.55154 10.5085C1.92382 10.0699 2.50232 9.54393 3.22292 8.88903L3.25262 8.86193L9.84432 2.86973L9.86992 2.84653C10.4857 2.28669 10.9837 1.83402 11.4254 1.52562C11.8849 1.20479 12.3369 1.00071 12.8643 1C13.3917 0.999292 13.8443 1.20216 14.3046 1.52175C14.7472 1.82897 15.2463 2.28032 15.8637 2.83853L15.8893 2.86163L22.4836 8.82393L22.5141 8.85153C23.2549 9.52123 23.8494 10.0587 24.2301 10.5069C24.5982 10.9402 24.9145 11.4569 24.7333 12.0349L24.2562 11.8853C24.2435 11.9258 24.2282 11.9655 24.2105 12.0041C23.9427 12.5861 22.9093 12.5861 20.8425 12.5861L16.8425 25.3004ZM16.8425 25.3004H16.8791C17.7908 25.3004 18.5257 25.3004 19.1036 25.2227C19.7037 25.142 20.209 24.9694 20.6102 24.5682C21.0115 24.1669 21.1841 23.6616 21.2648 23.0616C21.3425 22.4836 21.3425 21.7487 21.3425 20.837V20.8004V13.0858L16.8425 25.3004Z" stroke="url(#paint1_linear_1_16)"/>
  <defs>
    <linearGradient id="paint0_linear_1_16" x1="37.7966" y1="29.3004" x2="5.34111" y2="3.24813" gradientUnits="userSpaceOnUse">
      <stop offset="0.245118" stop-color="#DEE9F3"/>
      <stop offset="1" stop-color="#5F83AD"/>
    </linearGradient>
    <linearGradient id="paint1_linear_1_16" x1="1.89373" y1="6.30043" x2="25.3274" y2="23.004" gradientUnits="userSpaceOnUse">
      <stop offset="0.130987" stop-color="white"/>
      <stop offset="1" stop-color="#5B80A3"/>
    </linearGradient>
  </defs>
</svg>
