<svg width="24" height="24" viewBox="0 0 24 24" fill="none"
  xmlns="http://www.w3.org/2000/svg">
  <g filter="url(#filter0_ii_167809_28)">
    <path d="M2.83334 13.8333H7.51437C8.97918 13.8333 10.1666 15.0208 10.1666 16.4856V21.1667C10.1666 22.1792 10.9875 23 12 23C13.0125 23 13.8333 22.1792 13.8333 21.1667V16.673C13.8333 15.1047 15.1047 13.8333 16.673 13.8333H21.1667C22.1792 13.8333 23 13.0125 23 12C23 10.9875 22.1792 10.1667 21.1667 10.1667H16.2029C14.8942 10.1667 13.8333 9.10575 13.8333 7.79705V2.83334C13.8333 1.82081 13.0125 1 12 1C10.9875 1 10.1666 1.82081 10.1666 2.83334V7.79705C10.1666 9.10575 9.10573 10.1667 7.79703 10.1667H2.83334C1.82081 10.1667 1 10.9875 1 12C1 13.0125 1.82081 13.8333 2.83334 13.8333Z" stroke="url(#paint0_linear_167809_28)" stroke-opacity="0.5" stroke-width="2" stroke-linecap="round" stroke-linejoin="round"/>
  </g>
  <defs>
    <filter id="filter0_ii_167809_28" x="-0.5" y="-0.5" width="25" height="25" filterUnits="userSpaceOnUse" color-interpolation-filters="sRGB">
      <feFlood flood-opacity="0" result="BackgroundImageFix"/>
      <feBlend mode="normal" in="SourceGraphic" in2="BackgroundImageFix" result="shape"/>
      <feColorMatrix in="SourceAlpha" type="matrix" values="0 0 0 0 0 0 0 0 0 0 0 0 0 0 0 0 0 0 127 0" result="hardAlpha"/>
      <feOffset dx="-0.5" dy="-0.5"/>
      <feGaussianBlur stdDeviation="0.25"/>
      <feComposite in2="hardAlpha" operator="arithmetic" k2="-1" k3="1"/>
      <feColorMatrix type="matrix" values="0 0 0 0 1 0 0 0 0 1 0 0 0 0 1 0 0 0 0.4 0"/>
      <feBlend mode="normal" in2="shape" result="effect1_innerShadow_167809_28"/>
      <feColorMatrix in="SourceAlpha" type="matrix" values="0 0 0 0 0 0 0 0 0 0 0 0 0 0 0 0 0 0 127 0" result="hardAlpha"/>
      <feOffset dx="0.5" dy="0.5"/>
      <feGaussianBlur stdDeviation="0.25"/>
      <feComposite in2="hardAlpha" operator="arithmetic" k2="-1" k3="1"/>
      <feColorMatrix type="matrix" values="0 0 0 0 0.127604 0 0 0 0 0.267969 0 0 0 0 0.408333 0 0 0 0.4 0"/>
      <feBlend mode="normal" in2="effect1_innerShadow_167809_28" result="effect2_innerShadow_167809_28"/>
    </filter>
    <linearGradient id="paint0_linear_167809_28" x1="21.35" y1="23" x2="0.565909" y2="-2.97934" gradientUnits="userSpaceOnUse">
      <stop stop-color="#48647D"/>
      <stop offset="0.234375" stop-color="#6B8299"/>
      <stop offset="0.442708" stop-color="#DAE2EB"/>
      <stop offset="0.682292" stop-color="#8CA2B7"/>
      <stop offset="1" stop-color="#EDF2F7"/>
    </linearGradient>
  </defs>
</svg>
