<svg width="23" height="23" viewBox="0 0 23 23" fill="none"
  xmlns="http://www.w3.org/2000/svg">
  <path d="M2.3333 13.3333H7.0144C8.4792 13.3333 9.6666 14.5208 9.6666 15.9856V20.6667C9.6666 21.6792 10.4875 22.5 11.5 22.5C12.5125 22.5 13.3333 21.6792 13.3333 20.6667V16.173C13.3333 14.6047 14.6047 13.3333 16.173 13.3333H20.6667C21.6792 13.3333 22.5 12.5125 22.5 11.5C22.5 10.4875 21.6792 9.6667 20.6667 9.6667H15.7029C14.3942 9.6667 13.3333 8.6057 13.3333 7.297V2.33334C13.3333 1.32081 12.5125 0.5 11.5 0.5C10.4875 0.5 9.6666 1.32081 9.6666 2.33334V7.297C9.6666 8.6057 8.6057 9.6667 7.297 9.6667H2.3333C1.32081 9.6667 0.5 10.4875 0.5 11.5C0.5 12.5125 1.32081 13.3333 2.3333 13.3333Z" fill="url(#paint0_linear_1_35)"/>
  <defs>
    <linearGradient id="paint0_linear_1_35" x1="32.5671" y1="26.625" x2="3.4149" y2="5.0243" gradientUnits="userSpaceOnUse">
      <stop offset="0.245118" stop-color="#DEE9F3"/>
      <stop offset="1" stop-color="#5F83AD"/>
    </linearGradient>
  </defs>
</svg>
