<svg width="21" height="21" viewBox="0 0 21 21" fill="none"
  xmlns="http://www.w3.org/2000/svg">
  <path d="M18.9119 12.0685C18.6182 11.8444 18.4714 11.7323 18.3805 11.5993C18.3204 11.5113 18.2902 11.4503 18.2568 11.3493C18.2061 11.1963 18.2061 10.9642 18.2061 10.5C18.2061 10.0366 18.2061 9.8049 18.2566 9.6522C18.2902 9.5502 18.3207 9.4887 18.3815 9.4001C18.4724 9.2675 18.6192 9.1558 18.9126 8.9324L20.308 7.87C20.5033 7.72 20.5598 7.45 20.4313 7.23L18.3757 3.765C18.2473 3.55 17.98 3.46 17.7488 3.55L16.1079 4.1944C15.7326 4.3418 15.5449 4.4155 15.3703 4.4205C15.2937 4.4226 15.2444 4.4191 15.1689 4.4058C14.9969 4.3756 14.788 4.2561 14.3703 4.0172C13.9297 3.7652 13.7094 3.6392 13.5952 3.5037C13.5446 3.4436 13.5172 3.4035 13.4799 3.3343C13.3957 3.1784 13.3659 2.9739 13.3065 2.565L13.0672 0.92C13.021 0.685 12.8103 0.5 12.5533 0.5H8.44222C8.18522 0.5 7.97452 0.685 7.93342 0.92L7.69372 2.5684C7.63472 2.974 7.60522 3.1769 7.52172 3.3321C7.48352 3.4031 7.45512 3.4447 7.40292 3.5061C7.28882 3.6404 7.07032 3.7648 6.63342 4.0135C6.21112 4.2539 6.00002 4.3741 5.82982 4.4042C5.75182 4.418 5.70272 4.4216 5.62352 4.419C5.45082 4.4135 5.26362 4.34 4.88922 4.193L3.25182 3.55C3.02062 3.465 2.75332 3.55 2.62492 3.765L0.569312 7.23C0.440832 7.445 0.497362 7.715 0.692642 7.87L2.08352 8.9315C2.37722 9.1556 2.52412 9.2677 2.61502 9.4007C2.67512 9.4887 2.70522 9.5497 2.73872 9.6507C2.78932 9.8037 2.78932 10.0358 2.78932 10.5C2.78932 10.9642 2.78932 11.1963 2.73872 11.3493C2.70522 11.4503 2.67512 11.5113 2.61502 11.5993C2.52412 11.7323 2.37722 11.8444 2.08352 12.0685L0.692642 13.13C0.497362 13.28 0.440832 13.55 0.569312 13.77L2.62492 17.235C2.75332 17.45 3.02062 17.54 3.25182 17.45L4.89272 16.8056C5.26802 16.6582 5.45572 16.5845 5.63032 16.5795C5.70692 16.5774 5.75622 16.5809 5.83172 16.5942C6.00372 16.6244 6.21262 16.7439 6.63032 16.9828C7.07092 17.2348 7.29122 17.3608 7.40542 17.4963C7.45602 17.5564 7.48342 17.5965 7.52072 17.6657C7.60492 17.8216 7.63472 18.0261 7.69412 18.435L7.93342 20.08C7.97452 20.315 8.18522 20.5 8.44222 20.5H12.5533C12.8103 20.5 13.021 20.315 13.0621 20.08L13.3018 18.4317C13.3608 18.026 13.3903 17.8231 13.4737 17.6679C13.5119 17.5969 13.5403 17.5553 13.5925 17.4939C13.7067 17.3596 13.9251 17.2352 14.3621 16.9865C14.7844 16.7461 14.9955 16.6259 15.1657 16.5958C15.2437 16.582 15.2928 16.5784 15.3719 16.5809C15.5447 16.5865 15.7319 16.66 16.1062 16.807L17.7436 17.45C17.9749 17.535 18.2421 17.45 18.3706 17.235L20.4262 13.77C20.5546 13.555 20.4981 13.285 20.3028 13.13L18.9119 12.0685ZM10.4977 14C8.50902 14 6.90052 12.435 6.90052 10.5C6.90052 8.565 8.50902 7 10.4977 7C12.4865 7 14.095 8.565 14.095 10.5C14.095 12.435 12.4865 14 10.4977 14Z" fill="url(#paint0_linear_1_31)"/>
  <defs>
    <linearGradient id="paint0_linear_1_31" x1="29.6522" y1="24.25" x2="3.15032" y2="4.613" gradientUnits="userSpaceOnUse">
      <stop offset="0.245118" stop-color="#DEE9F3"/>
      <stop offset="1" stop-color="#5F83AD"/>
    </linearGradient>
  </defs>
</svg>
